<svg xmlns="http://www.w3.org/2000/svg" viewBox="0 0 560 300" font-family="system-ui, sans-serif" font-size="14">
  <defs>
    <marker id="arrow2" markerWidth="10" markerHeight="7" refX="10" refY="3.5" orient="auto">
      <polygon points="0 0, 10 3.5, 0 7" fill="#555"/>
    </marker>
    <marker id="arrow2g" markerWidth="10" markerHeight="7" refX="10" refY="3.5" orient="auto">
      <polygon points="0 0, 10 3.5, 0 7" fill="#ccc"/>
    </marker>
  </defs>

  <!-- Title -->
  <text x="280" y="30" text-anchor="middle" font-size="16" font-weight="bold" fill="#1a1a1a">Scenario 2: Three Replicas, No Load Balancer</text>

  <!-- k6 box -->
  <rect x="20" y="100" width="140" height="80" rx="8" fill="#e8f0fe" stroke="#4285f4" stroke-width="2"/>
  <text x="90" y="135" text-anchor="middle" font-weight="bold" fill="#1a1a1a">k6</text>
  <text x="90" y="155" text-anchor="middle" font-size="12" fill="#555">100 VUs</text>

  <!-- Arrow to service-1 (active) -->
  <line x1="160" y1="130" x2="330" y2="80" stroke="#555" stroke-width="2" marker-end="url(#arrow2)"/>
  <text x="230" y="90" text-anchor="middle" font-size="11" fill="#555">all traffic</text>

  <!-- Dashed arrows to service-2 and service-3 (no traffic) -->
  <line x1="160" y1="140" x2="330" y2="160" stroke="#ccc" stroke-width="1.5" stroke-dasharray="6,4" marker-end="url(#arrow2g)"/>
  <line x1="160" y1="150" x2="330" y2="240" stroke="#ccc" stroke-width="1.5" stroke-dasharray="6,4" marker-end="url(#arrow2g)"/>

  <!-- Service 1 (active) -->
  <rect x="340" y="50" width="180" height="60" rx="8" fill="#fce8e6" stroke="#ea4335" stroke-width="2"/>
  <text x="430" y="75" text-anchor="middle" font-weight="bold" fill="#1a1a1a">service-1</text>
  <text x="430" y="95" text-anchor="middle" font-size="11" fill="#888">500ms CPU block</text>

  <!-- Service 2 (idle) -->
  <rect x="340" y="130" width="180" height="60" rx="8" fill="#f5f5f5" stroke="#ccc" stroke-width="1.5" stroke-dasharray="4,3"/>
  <text x="430" y="155" text-anchor="middle" fill="#999">service-2</text>
  <text x="430" y="175" text-anchor="middle" font-size="11" fill="#bbb">idle</text>

  <!-- Service 3 (idle) -->
  <rect x="340" y="210" width="180" height="60" rx="8" fill="#f5f5f5" stroke="#ccc" stroke-width="1.5" stroke-dasharray="4,3"/>
  <text x="430" y="235" text-anchor="middle" fill="#999">service-3</text>
  <text x="430" y="255" text-anchor="middle" font-size="11" fill="#bbb">idle</text>

  <!-- Footer -->
  <text x="280" y="295" text-anchor="middle" font-size="12" fill="#888">Replicas exist but receive no traffic. Performance is identical to Scenario 1.</text>
</svg>
