<svg xmlns="http://www.w3.org/2000/svg" viewBox="0 0 680 300" font-family="system-ui, sans-serif" font-size="14">
  <defs>
    <marker id="arrow3" markerWidth="10" markerHeight="7" refX="10" refY="3.5" orient="auto">
      <polygon points="0 0, 10 3.5, 0 7" fill="#555"/>
    </marker>
  </defs>

  <!-- Title -->
  <text x="340" y="30" text-anchor="middle" font-size="16" font-weight="bold" fill="#1a1a1a">Scenario 3: Three Replicas + Caddy Load Balancer</text>

  <!-- k6 box -->
  <rect x="20" y="100" width="140" height="80" rx="8" fill="#e8f0fe" stroke="#4285f4" stroke-width="2"/>
  <text x="90" y="135" text-anchor="middle" font-weight="bold" fill="#1a1a1a">k6</text>
  <text x="90" y="155" text-anchor="middle" font-size="12" fill="#555">100 VUs</text>

  <!-- Arrow k6 -> Caddy -->
  <line x1="160" y1="140" x2="240" y2="140" stroke="#555" stroke-width="2" marker-end="url(#arrow3)"/>

  <!-- Caddy box -->
  <rect x="250" y="90" width="140" height="100" rx="8" fill="#e6f4ea" stroke="#34a853" stroke-width="2"/>
  <text x="320" y="130" text-anchor="middle" font-weight="bold" fill="#1a1a1a">Caddy</text>
  <text x="320" y="150" text-anchor="middle" font-size="12" fill="#555">reverse proxy</text>
  <text x="320" y="168" text-anchor="middle" font-size="11" fill="#888">round robin</text>

  <!-- Arrows Caddy -> services -->
  <line x1="390" y1="120" x2="470" y2="80" stroke="#555" stroke-width="2" marker-end="url(#arrow3)"/>
  <line x1="390" y1="140" x2="470" y2="155" stroke="#555" stroke-width="2" marker-end="url(#arrow3)"/>
  <line x1="390" y1="160" x2="470" y2="230" stroke="#555" stroke-width="2" marker-end="url(#arrow3)"/>

  <!-- Service 1 -->
  <rect x="480" y="50" width="170" height="60" rx="8" fill="#fce8e6" stroke="#ea4335" stroke-width="2"/>
  <text x="565" y="75" text-anchor="middle" font-weight="bold" fill="#1a1a1a">service-1</text>
  <text x="565" y="95" text-anchor="middle" font-size="11" fill="#888">500ms CPU block</text>

  <!-- Service 2 -->
  <rect x="480" y="130" width="170" height="60" rx="8" fill="#fce8e6" stroke="#ea4335" stroke-width="2"/>
  <text x="565" y="155" text-anchor="middle" font-weight="bold" fill="#1a1a1a">service-2</text>
  <text x="565" y="175" text-anchor="middle" font-size="11" fill="#888">500ms CPU block</text>

  <!-- Service 3 -->
  <rect x="480" y="210" width="170" height="60" rx="8" fill="#fce8e6" stroke="#ea4335" stroke-width="2"/>
  <text x="565" y="235" text-anchor="middle" font-weight="bold" fill="#1a1a1a">service-3</text>
  <text x="565" y="255" text-anchor="middle" font-size="11" fill="#888">500ms CPU block</text>

  <!-- Footer -->
  <text x="340" y="295" text-anchor="middle" font-size="12" fill="#888">Caddy distributes requests across 3 event loops. ~6 req/s total, ~3x Scenario 1.</text>
</svg>
